<?xml version="1.0" standalone="no"?>
<!DOCTYPE svg PUBLIC "-//W3C//DTD SVG 20010904//EN"
 "http://www.w3.org/TR/2001/REC-SVG-20010904/DTD/svg10.dtd">
<svg version="1.0" xmlns="http://www.w3.org/2000/svg"
 width="2000.000000pt" height="2000.000000pt" viewBox="0 0 2000.000000 2000.000000"
 preserveAspectRatio="xMidYMid meet">

<g transform="translate(0.000000,2000.000000) scale(0.100000,-0.100000)"
fill="#000000" stroke="none">
<path d="M10080 19210 c-536 -66 -1008 -403 -1405 -1005 -407 -617 -694 -1447
-780 -2260 -22 -203 -31 -726 -16 -930 62 -866 281 -1614 757 -2594 63 -129
113 -235 112 -237 -2 -1 -39 -17 -83 -34 -177 -70 -262 -129 -301 -206 -15
-31 -19 -60 -19 -139 1 -86 5 -112 33 -190 17 -49 28 -92 24 -96 -4 -3 -108
-34 -232 -68 -410 -115 -900 -267 -1297 -405 -152 -52 -168 -56 -255 -56 -318
0 -761 -104 -1142 -266 -582 -248 -985 -604 -1231 -1086 -32 -62 -82 -142
-110 -178 -310 -389 -551 -929 -626 -1405 -19 -121 -17 -408 5 -538 58 -353
163 -644 443 -1222 356 -734 422 -883 517 -1164 99 -291 128 -434 176 -856
185 -1626 501 -2595 1014 -3108 334 -333 737 -459 1226 -381 268 42 515 172
738 388 174 169 317 362 457 615 358 650 630 1679 769 2910 14 123 27 226 29
228 3 2 25 -6 51 -17 117 -50 279 -73 409 -59 182 21 443 108 603 202 105 62
270 220 323 309 121 208 156 459 105 758 -45 264 -172 607 -278 755 l-36 50
82 18 c75 17 693 168 744 183 21 6 21 5 7 -48 -24 -88 -29 -318 -9 -439 71
-431 363 -839 721 -1010 131 -63 196 -79 336 -86 95 -5 134 -2 222 16 281 58
523 169 669 308 32 31 59 54 61 52 2 -2 75 -157 162 -344 294 -629 557 -1135
746 -1432 339 -535 675 -848 1014 -944 93 -27 279 -36 371 -19 237 44 477 182
689 394 144 144 230 264 324 446 319 623 393 1498 225 2669 -152 1062 -569
2473 -1043 3535 -57 128 -74 177 -86 253 -135 836 -571 1479 -1211 1785 -128
61 -338 130 -474 156 -405 78 -883 45 -1352 -93 -64 -19 -123 -32 -131 -29
-43 16 -1400 -234 -2121 -391 -142 -31 -264 -54 -272 -51 -8 3 -14 16 -14 30
0 46 -58 255 -90 321 -37 78 -68 101 -149 111 -65 8 -233 -9 -368 -36 -52 -11
-96 -20 -98 -20 -2 0 -46 88 -99 196 -465 942 -708 1744 -776 2559 -14 169
-14 585 0 750 40 468 149 931 319 1358 359 900 769 1457 1254 1704 194 99 381
143 607 144 297 0 517 -77 743 -258 l68 -54 -95 -64 c-476 -318 -922 -829
-1121 -1285 -299 -684 -269 -1443 76 -1911 150 -204 337 -341 546 -401 67 -20
101 -23 238 -23 135 0 173 4 243 23 316 86 620 313 829 619 115 167 181 332
227 563 37 186 48 312 48 545 -1 454 -83 895 -243 1298 -75 188 -199 408 -287
508 l-32 36 78 36 c270 123 547 210 827 258 153 27 463 37 602 20 412 -51 731
-239 939 -554 42 -64 44 -68 30 -95 -50 -97 -103 -347 -113 -534 -5 -100 -4
-121 11 -143 14 -21 751 -950 775 -978 4 -4 217 151 475 343 l467 351 -19 27
c-412 593 -594 842 -687 941 -96 104 -293 168 -542 178 l-141 6 -49 71 c-26
38 -87 111 -135 162 -288 301 -721 454 -1282 454 -479 0 -922 -93 -1339 -281
l-107 -48 -91 69 c-228 175 -479 290 -737 340 -121 23 -334 33 -442 20z m1296
-855 c179 -276 332 -724 388 -1145 38 -276 47 -671 21 -891 -14 -125 -59 -318
-90 -394 -146 -350 -386 -585 -680 -666 -111 -31 -269 -31 -378 0 -237 66
-421 235 -547 504 -200 427 -145 994 154 1587 134 266 233 407 411 586 164
165 353 313 570 447 50 31 91 56 93 56 1 1 27 -37 58 -84z m1577 -6650 c95
-25 177 -72 247 -144 320 -326 123 -863 -335 -915 -199 -23 -426 99 -522 279
-78 149 -84 334 -14 489 60 133 200 250 351 292 63 17 205 17 273 -1z m1401
-776 c151 -50 286 -186 337 -340 33 -102 33 -245 0 -342 -107 -314 -471 -459
-765 -305 -78 41 -183 146 -224 224 -164 313 14 701 358 779 86 19 206 13 294
-16z m-2322 -493 c195 -35 353 -173 418 -366 33 -95 32 -239 -2 -336 -79 -225
-274 -364 -512 -364 -154 0 -276 50 -381 155 -104 104 -155 229 -155 380 0
299 227 530 535 543 11 1 55 -5 97 -12z m-5674 -569 c38 -21 28 -1 207 -420
l136 -317 -117 -240 c-65 -132 -122 -240 -128 -240 -17 0 -539 211 -553 224
-22 20 -283 658 -283 690 1 119 157 242 382 302 78 20 112 24 208 21 86 -2
123 -7 148 -20z m7107 -202 c187 -48 334 -189 392 -377 22 -72 22 -216 -1
-293 -44 -148 -143 -267 -277 -334 -306 -154 -664 5 -763 338 -20 68 -21 207
-1 280 48 182 202 336 386 385 71 19 191 20 264 1z m-5798 -296 c120 -58 232
-288 249 -514 12 -148 -24 -240 -104 -266 -20 -7 -146 -59 -279 -116 -133 -56
-248 -103 -257 -103 -35 0 -540 163 -560 181 -5 5 53 135 139 308 l149 300 60
25 c34 14 158 65 276 115 128 54 229 91 249 91 19 0 54 -9 78 -21z m-1577
-846 c135 -53 249 -99 253 -103 5 -5 -57 -138 -137 -296 l-146 -289 -217 -87
c-258 -104 -386 -148 -426 -148 -45 0 -93 35 -142 105 -95 132 -155 306 -155
445 0 74 1 79 33 110 51 50 194 135 436 258 136 69 230 111 240 107 9 -3 126
-49 261 -102z m4942 -54 c43 -11 59 -35 78 -116 21 -91 -5 -153 -85 -208 -91
-62 -287 -115 -429 -115 -218 0 -332 135 -220 260 27 29 55 46 122 70 161 58
380 113 477 119 11 0 37 -4 57 -10z m-4289 -198 c73 -27 189 -66 258 -86 l127
-38 37 -91 c234 -565 265 -660 237 -713 -21 -38 -111 -110 -189 -151 -126 -65
-232 -95 -342 -96 l-93 -1 -35 40 c-19 22 -64 89 -99 148 -62 105 -264 500
-278 544 -5 17 22 81 109 258 64 129 121 235 126 235 6 0 70 -22 142 -49z
m3164 -116 c41 -29 66 -159 42 -222 -31 -83 -159 -151 -349 -187 -176 -34
-314 -14 -382 54 -33 33 -38 44 -38 85 0 57 27 105 73 134 46 27 191 77 342
116 148 39 274 47 312 20z"/>
</g>
</svg>
